<svg xmlns="http://www.w3.org/2000/svg" viewBox="0 0 430 150"><defs><style>.cls-1{isolation:isolate;}.cls-2{fill:#00a1c6;mix-blend-mode:multiply;}.cls-3{fill:#0c87a4;}.cls-4{fill:#034a64;}</style></defs><title>Logo-Utah-DEQ-Water-Quality</title><g class="cls-1"><g id="Layer_1" data-name="Layer 1"><path class="cls-2" d="M14,150H41.92L27.15,124.41l-14,24.2A.93.93,0,0,0,14,150Z"/><polygon class="cls-3" points="30.65 118.35 48.92 150 77.56 150 44.97 93.54 30.65 118.35"/><path class="cls-4" d="M125.44,62.66a62.66,62.66,0,1,0-99.2,50.9L38.85,91.71a37.64,37.64,0,1,1,42.79,3.51l-17.9-31a1.07,1.07,0,0,0-1.85,0L48.47,87.48,84.56,150h27.08a.94.94,0,0,0,.81-1.41l-18.3-31.69A62.62,62.62,0,0,0,125.44,62.66Z"/><path class="cls-3" d="M149.87,35.24v-6.6a1.17,1.17,0,0,1,2.34,0v6.5c0,2.47,1.27,3.78,3.36,3.78s3.35-1.24,3.35-3.69v-6.6a1.17,1.17,0,0,1,2.34,0v6.48c0,4-2.24,6-5.72,6S149.87,39.09,149.87,35.24Z"/><path class="cls-3" d="M168.48,29.74h-3.23a1.08,1.08,0,1,1,0-2.17h8.84a1.08,1.08,0,0,1,0,2.17h-3.25V39.82a1.18,1.18,0,0,1-2.36,0Z"/><path class="cls-3" d="M175.65,39.36l4.94-11a1.48,1.48,0,0,1,1.41-1h.11a1.46,1.46,0,0,1,1.39,1l4.94,11a1,1,0,0,1,.13.49,1.1,1.1,0,0,1-1.1,1.12,1.2,1.2,0,0,1-1.14-.82l-1.08-2.49h-6.46l-1.12,2.57a1.12,1.12,0,0,1-1.08.74,1.07,1.07,0,0,1-1.08-1.08A1.19,1.19,0,0,1,175.65,39.36Zm8.71-3.76L182,30.22l-2.34,5.38Z"/><path class="cls-3" d="M191.67,28.64a1.17,1.17,0,0,1,2.34,0v4.47h6.35V28.64a1.17,1.17,0,0,1,2.34,0V39.82a1.17,1.17,0,0,1-2.34,0V35.27H194v4.54a1.17,1.17,0,0,1-2.34,0Z"/><path class="cls-3" d="M213.34,28.75a1.16,1.16,0,0,1,1.18-1.18h3.78c4.18,0,7.07,2.87,7.07,6.62v0c0,3.74-2.89,6.65-7.07,6.65h-3.78a1.16,1.16,0,0,1-1.18-1.18Zm5,10a4.34,4.34,0,0,0,4.62-4.49v0a4.37,4.37,0,0,0-4.62-4.52h-2.62v9Z"/><path class="cls-3" d="M229,39.7V28.75a1.16,1.16,0,0,1,1.18-1.18h7.74a1.06,1.06,0,0,1,1,1,1,1,0,0,1-1,1H231.3v3.46H237a1.06,1.06,0,0,1,1,1.06,1,1,0,0,1-1,1H231.3v3.57H238a1.05,1.05,0,0,1,1,1,1,1,0,0,1-1,1h-7.83A1.16,1.16,0,0,1,229,39.7Z"/><path class="cls-3" d="M242.43,28.75a1.16,1.16,0,0,1,1.18-1.18h4.07c3.12,0,5.06,1.77,5.06,4.45v0c0,3-2.4,4.54-5.32,4.54h-2.64v3.21a1.17,1.17,0,0,1-2.34,0Zm5.06,5.74c1.77,0,2.87-1,2.87-2.38v0c0-1.56-1.12-2.38-2.87-2.38h-2.72v4.79Z"/><path class="cls-3" d="M254.13,39.36l4.94-11a1.48,1.48,0,0,1,1.41-1h.11a1.46,1.46,0,0,1,1.39,1l4.94,11a1,1,0,0,1,.13.49A1.1,1.1,0,0,1,266,41a1.2,1.2,0,0,1-1.14-.82l-1.08-2.49h-6.46l-1.12,2.57a1.12,1.12,0,0,1-1.08.74A1.07,1.07,0,0,1,254,39.89,1.2,1.2,0,0,1,254.13,39.36Zm8.71-3.76-2.34-5.38-2.34,5.38Z"/><path class="cls-3" d="M270.15,28.75a1.16,1.16,0,0,1,1.18-1.18h4.75a5.36,5.36,0,0,1,3.84,1.33,4,4,0,0,1,1.1,2.87v0a3.94,3.94,0,0,1-3,4L280.55,39a1.36,1.36,0,0,1,.38.89A1.1,1.1,0,0,1,279.81,41a1.34,1.34,0,0,1-1.14-.61l-3.23-4.12h-2.95v3.57a1.17,1.17,0,0,1-2.34,0Zm5.76,5.42c1.67,0,2.74-.87,2.74-2.22v0c0-1.43-1-2.21-2.76-2.21h-3.4v4.47Z"/><path class="cls-3" d="M287.71,29.74h-3.23a1.08,1.08,0,1,1,0-2.17h8.84a1.08,1.08,0,0,1,0,2.17h-3.25V39.82a1.18,1.18,0,0,1-2.36,0Z"/><path class="cls-3" d="M297.39,28.68a1.17,1.17,0,0,1,1.18-1.18h.25a1.23,1.23,0,0,1,1.08.63l4,6.31,4-6.33A1.18,1.18,0,0,1,309,27.5h.25a1.17,1.17,0,0,1,1.18,1.18V39.82A1.16,1.16,0,0,1,309.29,41a1.18,1.18,0,0,1-1.16-1.16v-8l-3.25,4.89a1.09,1.09,0,0,1-2,0l-3.23-4.85v8A1.14,1.14,0,0,1,298.53,41a1.12,1.12,0,0,1-1.14-1.14Z"/><path class="cls-3" d="M314.8,39.7V28.75A1.16,1.16,0,0,1,316,27.57h7.74a1.06,1.06,0,0,1,1,1,1,1,0,0,1-1,1h-6.58v3.46h5.72a1.06,1.06,0,0,1,1,1.06,1,1,0,0,1-1,1h-5.72v3.57h6.67a1.05,1.05,0,0,1,1,1,1,1,0,0,1-1,1H316A1.16,1.16,0,0,1,314.8,39.7Z"/><path class="cls-3" d="M328.27,28.68a1.17,1.17,0,0,1,1.18-1.18h.25a1.47,1.47,0,0,1,1.22.68l6.65,8.61V28.62a1.15,1.15,0,0,1,2.3,0V39.8A1.14,1.14,0,0,1,338.73,41h-.09a1.47,1.47,0,0,1-1.22-.7l-6.84-8.86v8.44a1.15,1.15,0,0,1-2.3,0Z"/><path class="cls-3" d="M347.19,29.74H344a1.08,1.08,0,0,1,0-2.17h8.84a1.08,1.08,0,0,1,0,2.17h-3.25V39.82a1.18,1.18,0,0,1-2.36,0Z"/><path class="cls-3" d="M362.61,36.53a6,6,0,0,1,5.85-5.89,4.43,4.43,0,0,1,4.71,4.6,6,6,0,0,1-5.85,5.87A4.43,4.43,0,0,1,362.61,36.53Zm8.29-1.24a2.43,2.43,0,0,0-2.57-2.66c-2,0-3.44,2-3.44,3.82a2.43,2.43,0,0,0,2.57,2.66C369.4,39.11,370.9,37.1,370.9,35.29Z"/><path class="cls-3" d="M377.85,39.84A1.38,1.38,0,0,1,376.56,41c-.76,0-1.18-.55-.93-1.48l1.81-6.67h-.27a1,1,0,0,1-.87-1,1,1,0,0,1,1-1h.7l.19-.82A3.69,3.69,0,0,1,382,26.91a4.56,4.56,0,0,1,1.08.13.89.89,0,0,1,.78.91.93.93,0,0,1-1.06,1,2.42,2.42,0,0,0-.74-.11,1.62,1.62,0,0,0-1.65,1.41l-.15.57h1.62a1,1,0,0,1,0,2h-2.11Z"/><path class="cls-3" d="M150.08,62.52V51.57a1.16,1.16,0,0,1,1.18-1.18H159a1.06,1.06,0,0,1,1,1,1,1,0,0,1-1,1h-6.58v3.46h5.72a1.06,1.06,0,0,1,1,1.06,1,1,0,0,1-1,1h-5.72v3.57h6.67a1.05,1.05,0,0,1,1,1,1,1,0,0,1-1,1h-7.83A1.16,1.16,0,0,1,150.08,62.52Z"/><path class="cls-3" d="M163.55,51.49a1.17,1.17,0,0,1,1.18-1.18H165a1.47,1.47,0,0,1,1.22.68l6.65,8.61V51.44a1.15,1.15,0,0,1,2.3,0V62.61A1.14,1.14,0,0,1,174,63.77h-.1a1.47,1.47,0,0,1-1.22-.7l-6.84-8.86v8.44a1.15,1.15,0,0,1-2.3,0Z"/><path class="cls-3" d="M183,62.94,178.34,52a1.31,1.31,0,0,1-.13-.55,1.15,1.15,0,0,1,1.18-1.14,1.22,1.22,0,0,1,1.2.84l3.84,9.6,3.9-9.68a1.2,1.2,0,0,1,1.12-.76,1.13,1.13,0,0,1,1.16,1.12,1.35,1.35,0,0,1-.11.49l-4.68,11a1.39,1.39,0,0,1-1.35,1h-.13A1.39,1.39,0,0,1,183,62.94Z"/><path class="cls-3" d="M193.72,51.46a1.17,1.17,0,0,1,2.34,0V62.63a1.17,1.17,0,0,1-2.34,0Z"/><path class="cls-3" d="M200.42,51.57a1.16,1.16,0,0,1,1.18-1.18h4.75a5.36,5.36,0,0,1,3.84,1.33,4,4,0,0,1,1.1,2.87v0a3.94,3.94,0,0,1-3,4l2.55,3.21a1.36,1.36,0,0,1,.38.89,1.1,1.1,0,0,1-1.12,1.08,1.34,1.34,0,0,1-1.14-.61l-3.23-4.12h-2.95v3.57a1.17,1.17,0,0,1-2.34,0ZM206.18,57c1.67,0,2.74-.87,2.74-2.22v0c0-1.43-1-2.21-2.76-2.21h-3.4V57Z"/><path class="cls-3" d="M214.19,57.08v0a7,7,0,0,1,13.92,0v0a7,7,0,0,1-13.92,0Zm11.46,0v0a4.56,4.56,0,0,0-4.52-4.73,4.5,4.5,0,0,0-4.49,4.7v0a4.54,4.54,0,0,0,4.52,4.71A4.48,4.48,0,0,0,225.66,57.08Z"/><path class="cls-3" d="M231.74,51.49a1.17,1.17,0,0,1,1.18-1.18h.25a1.47,1.47,0,0,1,1.22.68L241,59.61V51.44a1.15,1.15,0,0,1,2.3,0V62.61a1.14,1.14,0,0,1-1.14,1.16h-.09a1.47,1.47,0,0,1-1.22-.7L234,54.21v8.44a1.15,1.15,0,0,1-2.3,0Z"/><path class="cls-3" d="M247.66,51.49a1.17,1.17,0,0,1,1.18-1.18h.25a1.23,1.23,0,0,1,1.08.63l4,6.31,4-6.33a1.18,1.18,0,0,1,1.06-.61h.25a1.17,1.17,0,0,1,1.18,1.18V62.63a1.16,1.16,0,0,1-1.18,1.16,1.18,1.18,0,0,1-1.16-1.16v-8l-3.25,4.89a1.09,1.09,0,0,1-2,0L250,54.69v8a1.14,1.14,0,0,1-1.16,1.14,1.12,1.12,0,0,1-1.14-1.14Z"/><path class="cls-3" d="M265.08,62.52V51.57a1.16,1.16,0,0,1,1.18-1.18H274a1.06,1.06,0,0,1,1,1,1,1,0,0,1-1,1h-6.58v3.46h5.72a1.06,1.06,0,0,1,1,1.06,1,1,0,0,1-1,1h-5.72v3.57h6.67a1.05,1.05,0,0,1,1,1,1,1,0,0,1-1,1h-7.83A1.16,1.16,0,0,1,265.08,62.52Z"/><path class="cls-3" d="M278.55,51.49a1.17,1.17,0,0,1,1.18-1.18H280a1.47,1.47,0,0,1,1.22.68l6.65,8.61V51.44a1.15,1.15,0,0,1,2.3,0V62.61A1.14,1.14,0,0,1,289,63.77h-.1a1.47,1.47,0,0,1-1.22-.7l-6.84-8.86v8.44a1.15,1.15,0,0,1-2.3,0Z"/><path class="cls-3" d="M297.46,52.56h-3.23a1.08,1.08,0,1,1,0-2.17h8.84a1.08,1.08,0,0,1,0,2.17h-3.25V62.63a1.18,1.18,0,0,1-2.36,0Z"/><path class="cls-3" d="M304.64,62.18l4.94-11a1.48,1.48,0,0,1,1.41-1h.11a1.46,1.46,0,0,1,1.39,1l4.94,11a1,1,0,0,1,.13.49,1.1,1.1,0,0,1-1.1,1.12,1.2,1.2,0,0,1-1.14-.82l-1.08-2.49h-6.46l-1.12,2.57a1.12,1.12,0,0,1-1.08.74,1.07,1.07,0,0,1-1.08-1.08A1.2,1.2,0,0,1,304.64,62.18Zm8.71-3.76L311,53l-2.34,5.38Z"/><path class="cls-3" d="M320.66,51.46a1.17,1.17,0,0,1,2.34,0V61.57h6a1.06,1.06,0,0,1,0,2.13h-7.19a1.16,1.16,0,0,1-1.18-1.18Z"/><path class="cls-3" d="M339.06,57.08v0A7,7,0,0,1,353,57v0a6.89,6.89,0,0,1-1.35,4.09l.86.7a1.15,1.15,0,0,1,.44.91,1.12,1.12,0,0,1-1.92.78l-1-.86a6.92,6.92,0,0,1-4,1.25A6.75,6.75,0,0,1,339.06,57.08Zm7.19,1.75a1.12,1.12,0,0,1,1.1-1.12,1.13,1.13,0,0,1,.82.34l1.71,1.56a5,5,0,0,0,.65-2.53v0A4.56,4.56,0,0,0,346,52.31a4.5,4.5,0,0,0-4.49,4.7v0a4.55,4.55,0,0,0,6.82,4.11l-1.65-1.41A1.14,1.14,0,0,1,346.25,58.83Z"/><path class="cls-3" d="M356.5,58.05v-6.6a1.17,1.17,0,0,1,2.34,0V58c0,2.47,1.27,3.78,3.37,3.78s3.35-1.24,3.35-3.69v-6.6a1.17,1.17,0,0,1,2.34,0v6.48c0,4-2.24,6-5.72,6S356.5,61.91,356.5,58.05Z"/><path class="cls-3" d="M370.5,62.18l4.94-11a1.48,1.48,0,0,1,1.41-1H377a1.46,1.46,0,0,1,1.39,1l4.94,11a1,1,0,0,1,.13.49,1.1,1.1,0,0,1-1.1,1.12,1.2,1.2,0,0,1-1.14-.82l-1.08-2.49h-6.46l-1.12,2.57a1.12,1.12,0,0,1-1.08.74,1.07,1.07,0,0,1-1.08-1.08A1.2,1.2,0,0,1,370.5,62.18Zm8.71-3.76L376.87,53l-2.34,5.38Z"/><path class="cls-3" d="M386.51,51.46a1.17,1.17,0,0,1,2.34,0V61.57h6a1.06,1.06,0,1,1,0,2.13h-7.19a1.16,1.16,0,0,1-1.18-1.18Z"/><path class="cls-3" d="M399,51.46a1.17,1.17,0,0,1,2.34,0V62.63a1.17,1.17,0,0,1-2.34,0Z"/><path class="cls-3" d="M408.69,52.56h-3.23a1.08,1.08,0,1,1,0-2.17h8.84a1.08,1.08,0,0,1,0,2.17H411V62.63a1.18,1.18,0,0,1-2.36,0Z"/><path class="cls-3" d="M422.67,58.53l-4.58-6.29a1.44,1.44,0,0,1-.27-.82A1.14,1.14,0,0,1,419,50.3a1.35,1.35,0,0,1,1.14.7l3.71,5.34L427.61,51a1.34,1.34,0,0,1,1.12-.7,1.11,1.11,0,0,1,1.14,1.14,1.42,1.42,0,0,1-.32.84L425,58.47v4.16a1.17,1.17,0,0,1-2.34,0Z"/><path class="cls-4" d="M149.44,83.65a2.7,2.7,0,0,1-.16-.78,2.06,2.06,0,0,1,2.13-2,2.09,2.09,0,0,1,2,1.48l3.74,11.56,3.77-11.45A2.18,2.18,0,0,1,163,80.8h.32a2.15,2.15,0,0,1,2.1,1.64l3.77,11.45L173,82.33a2.08,2.08,0,0,1,2-1.48,2,2,0,0,1,2,2,2.87,2.87,0,0,1-.16.81l-5.28,14.81a2.3,2.3,0,0,1-2.15,1.7H169a2.24,2.24,0,0,1-2.13-1.7l-3.72-10.8-3.72,10.8a2.24,2.24,0,0,1-2.13,1.7h-.43a2.3,2.3,0,0,1-2.15-1.7Z"/><path class="cls-4" d="M180.54,97.2l6.57-14.84a2.56,2.56,0,0,1,2.42-1.64h.24a2.53,2.53,0,0,1,2.4,1.64l6.57,14.84A2,2,0,0,1,199,98a2,2,0,0,1-2,2,2.11,2.11,0,0,1-2-1.43l-1.27-3h-8.3l-1.32,3.1a2,2,0,0,1-1.91,1.29,1.91,1.91,0,0,1-1.91-1.94A2.19,2.19,0,0,1,180.54,97.2ZM192.2,92l-2.61-6.22L187,92Z"/><path class="cls-4" d="M206.94,84.84h-4A1.91,1.91,0,1,1,203,81h12.12a1.91,1.91,0,1,1,0,3.83h-4V98a2.07,2.07,0,0,1-4.15,0Z"/><path class="cls-4" d="M222.45,97.8V83.09A2.06,2.06,0,0,1,224.52,81H235a1.86,1.86,0,0,1,1.86,1.86A1.84,1.84,0,0,1,235,84.7h-8.4v3.83h7.19a1.86,1.86,0,0,1,1.86,1.86,1.84,1.84,0,0,1-1.86,1.83h-7.19v4h8.54A1.86,1.86,0,0,1,237,98a1.84,1.84,0,0,1-1.86,1.83H224.52A2.06,2.06,0,0,1,222.45,97.8Z"/><path class="cls-4" d="M243.31,83.09A2.06,2.06,0,0,1,245.39,81h6.55a7.51,7.51,0,0,1,5.49,1.91A5.92,5.92,0,0,1,259,87.24v.05A5.76,5.76,0,0,1,255.27,93l2.88,3.5a2.42,2.42,0,0,1,.67,1.59,1.93,1.93,0,0,1-2,1.91,2.48,2.48,0,0,1-2-1.08l-4-5.12h-3.31V98a2.07,2.07,0,0,1-4.15,0Zm8.35,7.08c2,0,3.18-1.08,3.18-2.67v-.05c0-1.78-1.24-2.69-3.26-2.69h-4.12v5.41Z"/><path class="cls-4" d="M149.79,121.28v-.05a10,10,0,0,1,20-.05v.05a9.68,9.68,0,0,1-1.67,5.41l.81.67a2,2,0,0,1,.75,1.56,1.94,1.94,0,0,1-3.31,1.4l-1-.92a10.27,10.27,0,0,1-5.6,1.62A9.66,9.66,0,0,1,149.79,121.28Zm9.8,2.13a2,2,0,0,1,1.94-2,1.91,1.91,0,0,1,1.37.57l2.07,1.86a6.61,6.61,0,0,0,.51-2.59v-.05a5.73,5.73,0,0,0-5.71-5.93,5.64,5.64,0,0,0-5.66,5.87v.05a5.73,5.73,0,0,0,5.71,5.93,5.67,5.67,0,0,0,2.48-.51l-2-1.67A2,2,0,0,1,159.6,123.41Z"/><path class="cls-4" d="M176.19,122.57v-8.86a2.07,2.07,0,0,1,4.15,0v8.75c0,3.07,1.54,4.66,4.07,4.66s4.07-1.54,4.07-4.53v-8.89a2.07,2.07,0,1,1,4.15,0v8.73c0,5.71-3.21,8.51-8.27,8.51S176.19,128.12,176.19,122.57Z"/><path class="cls-4" d="M197.74,128l6.57-14.84a2.56,2.56,0,0,1,2.42-1.64H207a2.53,2.53,0,0,1,2.4,1.64L215.95,128a2,2,0,0,1,.22.84,2,2,0,0,1-2,2,2.11,2.11,0,0,1-2-1.43l-1.27-3h-8.3l-1.32,3.1a2,2,0,0,1-1.91,1.29,1.91,1.91,0,0,1-1.91-1.94A2.19,2.19,0,0,1,197.74,128Zm11.66-5.23-2.61-6.22-2.61,6.22Z"/><path class="cls-4" d="M221.76,113.71a2.07,2.07,0,1,1,4.15,0v13.17h7.68a1.89,1.89,0,1,1,0,3.77h-9.75a2.06,2.06,0,0,1-2.07-2.07Z"/><path class="cls-4" d="M241,113.71a2.07,2.07,0,1,1,4.15,0v15a2.07,2.07,0,0,1-4.15,0Z"/><path class="cls-4" d="M256.56,115.62h-4a1.91,1.91,0,1,1,0-3.83h12.12a1.91,1.91,0,1,1,0,3.83h-4v13.12a2.07,2.07,0,0,1-4.15,0Z"/><path class="cls-4" d="M277.86,123.38l-6.09-8.27a2.46,2.46,0,0,1-.51-1.48,2,2,0,0,1,2.07-2,2.39,2.39,0,0,1,2,1.27l4.58,6.6,4.66-6.65a2.38,2.38,0,0,1,2-1.24,1.92,1.92,0,0,1,2,2,2.57,2.57,0,0,1-.54,1.45L282,123.3v5.44a2.07,2.07,0,1,1-4.15,0Z"/></g></g></svg>