<svg xmlns="http://www.w3.org/2000/svg" viewBox="0 0 406.71 162"><defs><style>.cls-1{isolation:isolate;}.cls-2,.cls-3{fill:#fff;}.cls-2{mix-blend-mode:multiply;}</style></defs><title>Logo-Utah-DEQ-Water-Quality-Secondary-White</title><g class="cls-1"><g id="Layer_1" data-name="Layer 1"><path class="cls-2" d="M15,162H45.15l-16-27.64L14.1,160.5A1,1,0,0,0,15,162Z"/><polygon class="cls-3" points="32.97 127.81 52.7 162 83.64 162 48.43 101.03 32.97 127.81"/><path class="cls-3" d="M135.34,67.67a67.67,67.67,0,1,0-107.13,55L41.83,99.05A40.66,40.66,0,1,1,88,102.84L68.71,69.37a1.15,1.15,0,0,0-2,0L52.21,94.48l39,67.52h29.24a1,1,0,0,0,.88-1.52l-19.76-34.23A67.63,67.63,0,0,0,135.34,67.67Z"/><path class="cls-3" d="M172.15,41.29a4.52,4.52,0,0,1-.28-1.33,3.49,3.49,0,0,1,3.61-3.42,3.55,3.55,0,0,1,3.43,2.51l6.35,19.6,6.4-19.42a3.69,3.69,0,0,1,3.56-2.78h.55a3.65,3.65,0,0,1,3.56,2.78l6.4,19.42,6.35-19.6a3.52,3.52,0,0,1,3.38-2.51,3.39,3.39,0,0,1,3.47,3.38,5.12,5.12,0,0,1-.27,1.37l-9,25.13a3.9,3.9,0,0,1-3.65,2.88h-.73a3.79,3.79,0,0,1-3.61-2.88L195.4,48.1l-6.3,18.32a3.79,3.79,0,0,1-3.61,2.88h-.73a3.91,3.91,0,0,1-3.66-2.88Z"/><path class="cls-3" d="M224.58,64.27l11.15-25.18a4.36,4.36,0,0,1,4.12-2.78h.41a4.27,4.27,0,0,1,4.06,2.78l11.15,25.18a3.41,3.41,0,0,1,.37,1.42,3.34,3.34,0,0,1-3.34,3.38,3.59,3.59,0,0,1-3.38-2.42l-2.15-5H232.9l-2.24,5.25a3.44,3.44,0,0,1-3.24,2.2,3.24,3.24,0,0,1-3.25-3.29A3.88,3.88,0,0,1,224.58,64.27Zm19.79-8.86-4.43-10.56L235.5,55.41Z"/><path class="cls-3" d="M269,43.3h-6.77a3.25,3.25,0,0,1,0-6.49H282.8a3.25,3.25,0,1,1,0,6.49H276V65.55a3.52,3.52,0,1,1-7,0Z"/><path class="cls-3" d="M295.06,65.28v-25a3.49,3.49,0,0,1,3.51-3.52H316.3A3.16,3.16,0,0,1,319.45,40a3.12,3.12,0,0,1-3.15,3.11H302.05v6.49h12.2a3.16,3.16,0,0,1,3.15,3.15,3.12,3.12,0,0,1-3.15,3.11h-12.2v6.71h14.48a3.16,3.16,0,0,1,3.15,3.16,3.11,3.11,0,0,1-3.15,3.1h-18A3.48,3.48,0,0,1,295.06,65.28Z"/><path class="cls-3" d="M330.21,40.33a3.49,3.49,0,0,1,3.51-3.52h11.11c4.06,0,7.22,1.14,9.32,3.24a10.08,10.08,0,0,1,2.74,7.32v.09a9.76,9.76,0,0,1-6.4,9.73l4.89,5.94a4.08,4.08,0,0,1,1.14,2.69,3.27,3.27,0,0,1-3.33,3.25,4.21,4.21,0,0,1-3.47-1.83l-6.86-8.68h-5.62v7a3.52,3.52,0,1,1-7,0Zm14.16,12c3.43,0,5.39-1.83,5.39-4.53v-.09c0-3-2.1-4.57-5.53-4.57h-7v9.19Z"/><path class="cls-3" d="M172.74,102.77v-.1c0-9.09,7.17-16.54,17-16.54s16.95,7.36,16.95,16.45v.09a16.44,16.44,0,0,1-2.83,9.19l1.37,1.14a3.46,3.46,0,0,1,1.28,2.65,3.3,3.3,0,0,1-5.62,2.38l-1.74-1.56a17.38,17.38,0,0,1-9.5,2.74C179.82,119.21,172.74,111.86,172.74,102.77Zm16.63,3.61a3.32,3.32,0,0,1,3.29-3.34,3.24,3.24,0,0,1,2.33,1l3.52,3.15a11.18,11.18,0,0,0,.87-4.38v-.1a9.72,9.72,0,0,0-9.69-10c-5.66,0-9.59,4.48-9.59,10v.09c0,5.49,4,10.06,9.68,10.06a9.7,9.7,0,0,0,4.21-.87L190.65,109A3.42,3.42,0,0,1,189.37,106.38Z"/><path class="cls-3" d="M217.27,105v-15a3.52,3.52,0,0,1,7,0v14.85c0,5.2,2.6,7.9,6.9,7.9s6.89-2.6,6.89-7.68V89.93a3.52,3.52,0,1,1,7,0v14.8c0,9.69-5.44,14.44-14,14.44S217.27,114.37,217.27,105Z"/><path class="cls-3" d="M253.54,114.14,264.69,89a4.34,4.34,0,0,1,4.11-2.79h.41A4.29,4.29,0,0,1,273.28,89l11.15,25.17a3.39,3.39,0,0,1,.36,1.42,3.33,3.33,0,0,1-3.33,3.38,3.58,3.58,0,0,1-3.38-2.42l-2.15-5H261.86l-2.24,5.26a3.46,3.46,0,0,1-3.25,2.19,3.24,3.24,0,0,1-3.24-3.29A3.72,3.72,0,0,1,253.54,114.14Zm19.78-8.86-4.43-10.56-4.43,10.56Z"/><path class="cls-3" d="M294,89.93a3.52,3.52,0,1,1,7,0v22.34h13a3.2,3.2,0,0,1,0,6.4H297.54a3.49,3.49,0,0,1-3.52-3.52Z"/><path class="cls-3" d="M326.39,89.93a3.52,3.52,0,1,1,7,0v25.49a3.52,3.52,0,1,1-7,0Z"/><path class="cls-3" d="M352.52,93.17h-6.76a3.25,3.25,0,0,1,0-6.49h20.56a3.25,3.25,0,1,1,0,6.49h-6.76v22.25a3.52,3.52,0,1,1-7,0Z"/><path class="cls-3" d="M388.43,106.33l-10.33-14a4.17,4.17,0,0,1-.86-2.51,3.43,3.43,0,0,1,3.51-3.38,4.06,4.06,0,0,1,3.48,2.15L392,99.75l7.91-11.29a4,4,0,0,1,3.38-2.1,3.26,3.26,0,0,1,3.43,3.43,4.36,4.36,0,0,1-.92,2.47l-10.32,13.93v9.23a3.52,3.52,0,0,1-7,0Z"/></g></g></svg>